PathFileType	4	(X/Y/Z)	C:/Users/beibeiliu/ov580/test_trc/User3\sequence.29_training_dense_left.trc
DataRate	CameraRate	NumFrames	NumMarkers	Units	OrigDataRate	OrigDataStartFrame	OrigNumFrames
120	120	7	19	mm	120	66	260
Frame#	Time	ThumbCMC			ThumbMCP			ThumbIP			ThumbTip			IndexMCP			IndexPIP			IndexTip			MiddleMCP			MiddlePIP			MiddleTip			RingMCP			RingPIP			RingTip			PinkyMCP			PinkyPIP			PinkyTip			BackHand1			BackHand2			BackHand3	
		X0	Y0	Z0	X1	Y1	Z1	X2	Y2	Z2	X3	Y3	Z3	X4	Y4	Z4	X5	Y5	Z5	X6	Y6	Z6	X7	Y7	Z7	X8	Y8	Z8	X9	Y9	Z9	X10	Y10	Z10	X11	Y11	Z11	X12	Y12	Z12	X13	Y13	Z13	X14	Y14	Z14	X15	Y15	Z15	X16	Y16	Z16	X17	Y17	Z17	X18	Y18	Z18	
65	0.541667	-162.66	3.71904	10.389	-136.629	8.74467	-9.76767	-116.192	11.7818	-23.8297	-99.845	8.73275	-43.677	-166.596	-5.10886	-65.2394	-141.099	-17.5573	-87.7398	-114.569	-29.13	-70.6137	-162.164	-27.9746	-72.6196	-133.359	-45.5877	-71.2857	-128.445	-48.7795	-35.27	-162.089	-49.0972	-58.7105	-136.267	-60.3889	-45.7038	-141.625	-52.5692	-14.5258	-166.479	-65.0984	-45.0303	-145.307	-71.7757	-29.4115	-146.092	-54.5035	-4.48812	-206.642	-33.9097	-19.1555	-217.284	-34.8526	5.70455	-197.688	-4.74718	-5.44972	
66	0.55	-168.683	7.41829	7.4837	-146.151	15.1451	-9.60876	-126.022	20.7231	-30.4514	-108.664	23.5868	-46.7794	-165.026	-9.23677	-67.1079	-135.878	-20.0166	-83.8066	-110.567	-27.5062	-63.1421	-161.844	-34.5214	-72.3222	-131.002	-41.676	-72.6581	-122.627	-45.6089	-30.9924	-163.056	-53.3312	-59.0739	-135.259	-63.8426	-49.8943	-130.931	-54.2104	-20.0609	-171.121	-69.485	-44.5275	-143.4	-70.7946	-36.4494	-139.621	-61.2226	-8.10674	-209.143	-36.9189	-20.6308	-216.935	-38.3737	5.42069	-202.582	-6.01573	-8.121	
67	0.558333	-177.436	10.4394	4.13554	-157.108	17.7289	-13.7312	-138.986	27.9712	-36.9486	-124.374	28.0695	-55.2171	-164.545	-16.2832	-67.0567	-133.348	-21.5826	-76.7706	-108.94	-25.0312	-55.6888	-163.2	-38.1145	-68.916	-130.004	-44.7629	-68.3887	-115.994	-45.7988	-34.0506	-165.949	-55.7617	-59.0994	-134.177	-62.254	-53.4727	-123.327	-54.06	-25.5296	-168.63	-73.347	-45.7324	-141.423	-74.54	-40.3167	-131.472	-59.4747	-16.4732	-211.94	-42.2731	-21.2873	-217.979	-40.1092	4.74633	-206.649	-9.26347	-10.8258	
68	0.566667	-185.102	11.0072	3.36673	-167.461	21.223	-17.3802	-153.903	27.6593	-39.2541	-139.087	35.2605	-58.0719	-161.924	-18.122	-67.3349	-128.16	-23.8908	-69.104	-110.502	-27.158	-46.6012	-164.55	-40.9358	-68.8434	-133.262	-46.0294	-68.4305	-111.347	-41.9086	-37.5357	-170.549	-56.1715	-59.0551	-138.877	-63.9916	-61.0562	-118.236	-61.9696	-38.2286	-175.404	-77.843	-44.307	-147.598	-79.0487	-50.3128	-127.057	-67.5491	-35.7408	-211.789	-45.4088	-23.3604	-223.601	-44.6386	5.45503	-210.216	-13.7888	-12.9142	
69	0.575	-191.304	7.46904	3.60447	-176.389	19.8046	-22.0029	-163.983	30.2028	-45.174	-151.857	38.331	-60.2344	-161.766	-16.223	-66.1604	-129.315	-22.881	-62.9409	-112.313	-24.3821	-39.8883	-163.345	-42.9894	-68.6972	-134.402	-46.5237	-68.7348	-108.906	-41.8132	-37.9764	-172.841	-61.3889	-58.9859	-145.933	-68.1021	-67.0357	-117.42	-63.1173	-53.0763	-180.796	-78.4911	-45.227	-157.791	-82.7365	-57.6954	-132.145	-81.4827	-53.2707	-216.033	-48.433	-18.8285	-225.505	-46.0386	10.1628	-214.006	-15.0049	-12.1913	
70	0.583333	-195.998	10.2074	1.0555	-183.618	17.1053	-22.3246	-171.723	29.6438	-48.2795	-162.542	38.2462	-65.5977	-161.681	-17.448	-65.5127	-132.365	-18.1122	-63.6163	-111.687	-21.7127	-34.2787	-165.041	-39.9049	-67.5759	-133.913	-45.0647	-68.9855	-106.25	-37.2278	-44.638	-173.87	-62.9374	-58.881	-143.403	-66.2722	-70.9348	-112.674	-66.0096	-62.3485	-180.255	-80.7979	-44.3117	-162.927	-89.8778	-55.9953	-134.928	-86.8345	-64.9035	-214.207	-52.3086	-21.0666	-224.361	-43.4558	7.68428	-215.841	-16.5263	-12.9345	
71	0.591667	-199.886	8.31292	-4.65061	-189.593	20.1386	-23.4644	-178.883	25.9525	-51.2544	-170.169	37.9392	-69.3575	-160.71	-23.3464	-63.0907	-128.984	-19.7214	-57.9771	-112.414	-17.5688	-30.9286	-164.425	-43.021	-67.8608	-131.983	-41.6758	-70.3333	-100.823	-36.0458	-45.9878	-169.054	-62.9165	-59.9726	-147.851	-68.9709	-70.386	-112.329	-69.4785	-70.3906	-178.073	-79.7767	-37.6506	-160.35	-88.8889	-55.0744	-138.406	-93.9541	-69.4985	-211.225	-54.2653	-22.236	-224.523	-48.2183	5.46663	-216.58	-16.5327	-17.4525	
